<?xml version="1.0" encoding="UTF-8" standalone="no" ?>
<!DOCTYPE svg PUBLIC "-//W3C//DTD SVG 1.1//EN" "http://www.w3.org/Graphics/SVG/1.1/DTD/svg11.dtd">
<svg xmlns="http://www.w3.org/2000/svg" xmlns:xlink="http://www.w3.org/1999/xlink" version="1.1" width="1080" height="1080" viewBox="0 0 1080 1080" xml:space="preserve">
<desc>Created with Fabric.js 5.2.4</desc>
<defs>
</defs>
<rect x="0" y="0" width="100%" height="100%" fill="transparent"></rect>
<g transform="matrix(1 0 0 1 540 540)" id="1915b064-7495-45bc-a7e4-3e6aa00dbb67"  >
</g>
<g transform="matrix(1 0 0 1 540 540)" id="95729621-89e1-4444-9fd4-123780d28fe4"  >
<rect style="stroke: none; stroke-width: 1; stroke-dasharray: none; stroke-linecap: butt; stroke-dashoffset: 0; stroke-linejoin: miter; stroke-miterlimit: 4; fill: rgb(255,255,255); fill-rule: nonzero; opacity: 1;" vector-effect="non-scaling-stroke"  x="-540" y="-540" rx="0" ry="0" width="1080" height="1080" />
</g>
<g transform="matrix(56.62 0 0 56.68 541.19 539.41)"  >
<path style="stroke: rgb(255,255,255); stroke-width: 1; stroke-dasharray: none; stroke-linecap: butt; stroke-dashoffset: 0; stroke-linejoin: miter; stroke-miterlimit: 4; fill: rgb(229,229,229); fill-rule: nonzero; opacity: 1;"  transform=" translate(-12, -12)" d="M 12 2 C 6.48 2 2 6.48 2 12 C 2 17.52 6.48 22 12 22 C 17.52 22 22 17.52 22 12 C 22 6.48 17.52 2 12 2 M 12 6 C 13.93 6 15.5 7.57 15.5 9.5 C 15.5 11.43 13.93 13 12 13 C 10.07 13 8.5 11.43 8.5 9.5 C 8.5 7.57 10.07 6 12 6 M 12 20 C 9.97 20 7.57 19.18 5.86 17.12 C 7.55 15.8 9.68 15 12 15 C 14.32 15 16.45 15.8 18.14 17.12 C 16.43 19.18 14.03 20 12 20" stroke-linecap="round" />
</g>
<g transform="matrix(NaN NaN NaN NaN 0 0)"  >
<g style=""   >
</g>
</g>
<g transform="matrix(NaN NaN NaN NaN 0 0)"  >
<g style=""   >
</g>
</g>
</svg>